<svg width="56" height="56" xmlns="http://www.w3.org/2000/svg">

 <g>
  <title>Layer 1</title>
  <g stroke="null" id="svg_13">
   <g stroke="null" id="svg_5">
    <polygon stroke="null" id="svg_6" points="2.9579930305480957,36.21836471557617 15.015388488769531,36.21836471557617 15.015388488769531,39.887535095214844 11.556366920471191,39.887535095214844 11.556366920471191,48.70566177368164 6.532114028930664,48.70566177368164 6.532114028930664,39.887535095214844 2.9579930305480957,39.887535095214844 " fill="#486AAE"/>
    <polygon stroke="null" id="svg_7" points="21.121807098388672,41.263736724853516 18.583221435546875,48.70566177368164 13.758198738098145,48.70566177368164 18.49043083190918,36.21836471557617 23.73052215576172,36.21836471557617 28.576786041259766,48.70566177368164 23.692434310913086,48.70566177368164 " fill="#486AAE"/>
    <polygon stroke="null" id="svg_8" points="27.42412757873535,36.21836471557617 39.48106002807617,36.21836471557617 39.48106002807617,39.887535095214844 36.02310562133789,39.887535095214844 36.02310562133789,48.70566177368164 30.99908447265625,48.70566177368164 30.99908447265625,39.887535095214844 27.42412757873535,39.887535095214844 " fill="#486AAE"/>
    <polygon stroke="null" id="svg_9" points="45.5896110534668,41.263736724853516 43.05007553100586,48.70566177368164 38.22505569458008,48.70566177368164 42.95882797241211,36.21836471557617 48.1973762512207,36.21836471557617 53.04197692871094,48.70566177368164 48.159400939941406,48.70566177368164 " fill="#486AAE"/>
    <path stroke="null" id="svg_10" d="m45.76748,13.28162c-0.45019,-0.88531 -1.04313,-1.73384 -1.78071,-2.52957c-1.65754,-1.78901 -3.99619,-3.27771 -6.76379,-4.30446c-2.79038,-1.03471 -5.97305,-1.5822 -9.20733,-1.5822s-6.41695,0.54749 -9.20591,1.5822c-2.76902,1.02687 -5.10779,2.51557 -6.76533,4.30446c-0.73711,0.79562 -1.33195,1.64533 -1.78202,2.53111c3.60307,-0.87131 9.76633,-2.0217 15.48901,-2.14332c0.552,-0.01187 0.93207,0.16493 1.18232,0.48211c0.30484,0.38624 0.28194,1.76302 0.27446,2.37899l-0.16268,15.92045c0.32228,0.01068 0.6461,0.01755 0.97015,0.01755c0.32679,0 0.65239,-0.00533 0.97466,-0.01601l-0.16269,-15.92211c-0.00842,-0.61585 -0.03203,-1.99277 0.27387,-2.37899c0.25084,-0.31706 0.62961,-0.49386 1.18149,-0.48211c5.7203,0.12067 11.88214,1.2713 15.4845,2.1419" fill="#486AAE" clip-rule="evenodd" fill-rule="evenodd"/>
    <path stroke="null" id="svg_11" d="m46.53675,15.35198c-5.27344,-1.19217 -8.7951,-1.41263 -12.26991,-1.60545c-3.02888,-0.16838 -3.0684,0.9132 -2.76606,2.98011c0.01982,0.12613 0.04414,0.28514 0.07298,0.46645c1.01596,6.01743 2.2811,11.19569 2.49848,12.0746c7.38413,-1.68792 12.70943,-6.3677 12.70943,-11.86517c0,-0.69226 -0.08366,-1.37811 -0.24492,-2.05055" fill="#486AAE" clip-rule="evenodd" fill-rule="evenodd"/>
    <path stroke="null" id="svg_12" d="m24.53337,16.72664c0.3027,-2.0668 0.2639,-3.14849 -2.76463,-2.98011c-3.47599,0.19282 -6.9985,0.41317 -12.27395,1.60617c-0.16114,0.67243 -0.24586,1.35745 -0.24586,2.04972c0,2.37601 0.96659,4.67515 2.7956,6.65047c1.65754,1.78901 3.99631,3.27771 6.76533,4.30518c1.00219,0.37104 2.0598,0.67516 3.1492,0.91841c0.20445,-0.82337 1.49866,-6.10939 2.52565,-12.23443c0.01899,-0.11736 0.03655,-0.22569 0.04865,-0.3154" fill="#486AAE" clip-rule="evenodd" fill-rule="evenodd"/>
   </g>
  </g>
 </g>
</svg>